<svg id="SvgjsSvg1006" width="389.00897216796875" height="316.21429443359375" xmlns="http://www.w3.org/2000/svg" version="1.1" xmlns:xlink="http://www.w3.org/1999/xlink" xmlns:svgjs="http://svgjs.com/svgjs"><defs id="SvgjsDefs1007"><marker id="SvgjsMarker1010" markerWidth="14" markerHeight="10" refX="10" refY="5" viewBox="0 0 14 10" orient="auto" markerUnits="userSpaceOnUse" stroke-dasharray="0,0"><path id="SvgjsPath1011" d="M0,0 L14,5 L0,10 L0,0" fill="#323232" stroke="#323232" stroke-width="1"></path></marker><marker id="SvgjsMarker1014" markerWidth="14" markerHeight="10" refX="10" refY="5" viewBox="0 0 14 10" orient="auto" markerUnits="userSpaceOnUse" stroke-dasharray="0,0"><path id="SvgjsPath1015" d="M0,0 L14,5 L0,10 L0,0" fill="#323232" stroke="#323232" stroke-width="1"></path></marker></defs><g id="SvgjsG1008"><path id="SvgjsPath1009" d="M58.0089111328125 265.21427154541016L206.0089111328125 265.21427154541016L206.0089111328125 265.21427154541016L354.0089111328125 265.21427154541016" stroke="#323232" stroke-width="2" fill="none" marker-end="url(#SvgjsMarker1010)"></path></g><g id="SvgjsG1012"><path id="SvgjsPath1013" d="M58.0089111328125 264.21427154541016L58.0089111328125 144.71427154541016L58.0089111328125 144.71427154541016L58.0089111328125 25.214271545410156" stroke="#323232" stroke-width="2" fill="none" marker-end="url(#SvgjsMarker1014)"></path></g><g id="SvgjsG1016" transform="translate(103.0089111328125,73.35712432861328)"><path id="SvgjsPath1017" d="M 0 12.5C 0 -4.166666666666667 25 -4.166666666666667 25 12.5C 25 29.166666666666668 0 29.166666666666668 0 12.5Z" stroke="rgba(50,50,50,1)" stroke-width="2" fill-opacity="1" fill="#ffffff"></path><g id="SvgjsG1018"><text id="SvgjsText1019" font-family="微软雅黑" text-anchor="middle" font-size="13px" width="5px" fill="#323232" font-weight="400" align="middle" lineHeight="125%" anchor="middle" family="微软雅黑" size="13px" weight="400" font-style="" opacity="1" y="1.875" transform="rotate(0)"></text></g></g><g id="SvgjsG1020" transform="translate(103.0089111328125,133.96427536010742)"><path id="SvgjsPath1021" d="M 0 12.5C 0 -4.166666666666667 25 -4.166666666666667 25 12.5C 25 29.166666666666668 0 29.166666666666668 0 12.5Z" stroke="rgba(50,50,50,1)" stroke-width="2" fill-opacity="1" fill="#ffffff"></path><g id="SvgjsG1022"><text id="SvgjsText1023" font-family="微软雅黑" text-anchor="middle" font-size="13px" width="5px" fill="#323232" font-weight="400" align="middle" lineHeight="125%" anchor="middle" family="微软雅黑" size="13px" weight="400" font-style="" opacity="1" y="1.875" transform="rotate(0)"></text></g></g><g id="SvgjsG1024" transform="translate(103.0089111328125,194.57142639160156)"><path id="SvgjsPath1025" d="M 0 12.5C 0 -4.166666666666667 25 -4.166666666666667 25 12.5C 25 29.166666666666668 0 29.166666666666668 0 12.5Z" stroke="rgba(50,50,50,1)" stroke-width="2" fill-opacity="1" fill="#ffffff"></path><g id="SvgjsG1026"><text id="SvgjsText1027" font-family="微软雅黑" text-anchor="middle" font-size="13px" width="5px" fill="#323232" font-weight="400" align="middle" lineHeight="125%" anchor="middle" family="微软雅黑" size="13px" weight="400" font-style="" opacity="1" y="1.875" transform="rotate(0)"></text></g></g><g id="SvgjsG1028" transform="translate(193.0089111328125,73.35712432861328)"><path id="SvgjsPath1029" d="M 0 12.5C 0 -4.166666666666667 25 -4.166666666666667 25 12.5C 25 29.166666666666668 0 29.166666666666668 0 12.5Z" stroke="rgba(50,50,50,1)" stroke-width="2" fill-opacity="1" fill="#ffffff"></path><g id="SvgjsG1030"><text id="SvgjsText1031" font-family="微软雅黑" text-anchor="middle" font-size="13px" width="5px" fill="#323232" font-weight="400" align="middle" lineHeight="125%" anchor="middle" family="微软雅黑" size="13px" weight="400" font-style="" opacity="1" y="1.875" transform="rotate(0)"></text></g></g><g id="SvgjsG1032" transform="translate(193.0089111328125,133.96427536010742)"><path id="SvgjsPath1033" d="M 0 12.5C 0 -4.166666666666667 25 -4.166666666666667 25 12.5C 25 29.166666666666668 0 29.166666666666668 0 12.5Z" stroke="rgba(50,50,50,1)" stroke-width="2" fill-opacity="1" fill="#ffffff"></path><g id="SvgjsG1034"><text id="SvgjsText1035" font-family="微软雅黑" text-anchor="middle" font-size="13px" width="5px" fill="#323232" font-weight="400" align="middle" lineHeight="125%" anchor="middle" family="微软雅黑" size="13px" weight="400" font-style="" opacity="1" y="1.875" transform="rotate(0)"></text></g></g><g id="SvgjsG1036" transform="translate(193.0089111328125,194.57142639160156)"><path id="SvgjsPath1037" d="M 0 12.5C 0 -4.166666666666667 25 -4.166666666666667 25 12.5C 25 29.166666666666668 0 29.166666666666668 0 12.5Z" stroke="rgba(50,50,50,1)" stroke-width="2" fill-opacity="1" fill="#ffffff"></path><g id="SvgjsG1038"><text id="SvgjsText1039" font-family="微软雅黑" text-anchor="middle" font-size="13px" width="5px" fill="#323232" font-weight="400" align="middle" lineHeight="125%" anchor="middle" family="微软雅黑" size="13px" weight="400" font-style="" opacity="1" y="1.875" transform="rotate(0)"></text></g></g><g id="SvgjsG1040" transform="translate(283.0089111328125,73.35712432861328)"><path id="SvgjsPath1041" d="M 0 12.5C 0 -4.166666666666667 25 -4.166666666666667 25 12.5C 25 29.166666666666668 0 29.166666666666668 0 12.5Z" stroke="rgba(50,50,50,1)" stroke-width="2" fill-opacity="1" fill="#ffffff"></path><g id="SvgjsG1042"><text id="SvgjsText1043" font-family="微软雅黑" text-anchor="middle" font-size="13px" width="5px" fill="#323232" font-weight="400" align="middle" lineHeight="125%" anchor="middle" family="微软雅黑" size="13px" weight="400" font-style="" opacity="1" y="1.875" transform="rotate(0)"></text></g></g><g id="SvgjsG1044" transform="translate(283.0089111328125,133.96427536010742)"><path id="SvgjsPath1045" d="M 0 12.5C 0 -4.166666666666667 25 -4.166666666666667 25 12.5C 25 29.166666666666668 0 29.166666666666668 0 12.5Z" stroke="rgba(50,50,50,1)" stroke-width="2" fill-opacity="1" fill="#ffffff"></path><g id="SvgjsG1046"><text id="SvgjsText1047" font-family="微软雅黑" text-anchor="middle" font-size="13px" width="5px" fill="#323232" font-weight="400" align="middle" lineHeight="125%" anchor="middle" family="微软雅黑" size="13px" weight="400" font-style="" opacity="1" y="1.875" transform="rotate(0)"></text></g></g><g id="SvgjsG1048" transform="translate(283.0089111328125,194.57142639160156)"><path id="SvgjsPath1049" d="M 0 12.5C 0 -4.166666666666667 25 -4.166666666666667 25 12.5C 25 29.166666666666668 0 29.166666666666668 0 12.5Z" stroke="rgba(50,50,50,1)" stroke-width="2" fill-opacity="1" fill="#ffffff"></path><g id="SvgjsG1050"><text id="SvgjsText1051" font-family="微软雅黑" text-anchor="middle" font-size="13px" width="5px" fill="#323232" font-weight="400" align="middle" lineHeight="125%" anchor="middle" family="微软雅黑" size="13px" weight="400" font-style="" opacity="1" y="1.875" transform="rotate(0)"></text></g></g><g id="SvgjsG1052" transform="translate(102.0089111328125,269.21427154541016)"><path id="SvgjsPath1053" d="M 0 0L 27 0L 27 22L 0 22Z" stroke="none" fill="none"></path><g id="SvgjsG1054"><text id="SvgjsText1055" font-family="微软雅黑" text-anchor="middle" font-size="13px" width="27px" fill="#323232" font-weight="400" align="middle" lineHeight="125%" anchor="middle" family="微软雅黑" size="13px" weight="400" font-style="" opacity="1" y="0.375" transform="rotate(0)"><tspan id="SvgjsTspan1056" dy="16" x="13.5"><tspan id="SvgjsTspan1057" style="text-decoration:;">1</tspan></tspan></text></g></g><g id="SvgjsG1058" transform="translate(192.0089111328125,269.21427154541016)"><path id="SvgjsPath1059" d="M 0 0L 27 0L 27 22L 0 22Z" stroke="none" fill="none"></path><g id="SvgjsG1060"><text id="SvgjsText1061" font-family="微软雅黑" text-anchor="middle" font-size="13px" width="27px" fill="#323232" font-weight="400" align="middle" lineHeight="125%" anchor="middle" family="微软雅黑" size="13px" weight="400" font-style="" opacity="1" y="0.375" transform="rotate(0)"><tspan id="SvgjsTspan1062" dy="16" x="13.5"><tspan id="SvgjsTspan1063" style="text-decoration:;">2</tspan></tspan></text></g></g><g id="SvgjsG1064" transform="translate(282.0089111328125,269.21427154541016)"><path id="SvgjsPath1065" d="M 0 0L 27 0L 27 22L 0 22Z" stroke="none" fill="none"></path><g id="SvgjsG1066"><text id="SvgjsText1067" font-family="微软雅黑" text-anchor="middle" font-size="13px" width="27px" fill="#323232" font-weight="400" align="middle" lineHeight="125%" anchor="middle" family="微软雅黑" size="13px" weight="400" font-style="" opacity="1" y="0.375" transform="rotate(0)"><tspan id="SvgjsTspan1068" dy="16" x="13.5"><tspan id="SvgjsTspan1069" style="text-decoration:;">3</tspan></tspan></text></g></g><g id="SvgjsG1070" transform="translate(337.0089111328125,269.21427154541016)"><path id="SvgjsPath1071" d="M 0 0L 27 0L 27 22L 0 22Z" stroke="none" fill="none"></path><g id="SvgjsG1072"><text id="SvgjsText1073" font-family="微软雅黑" text-anchor="middle" font-size="13px" width="27px" fill="#323232" font-weight="400" align="middle" lineHeight="125%" anchor="middle" family="微软雅黑" size="13px" weight="400" font-style="" opacity="1" y="0.375" transform="rotate(0)"><tspan id="SvgjsTspan1074" dy="16" x="13.5"><tspan id="SvgjsTspan1075" style="text-decoration:;">时间</tspan></tspan></text></g></g><g id="SvgjsG1076" transform="translate(25.0089111328125,196.07142639160156)"><path id="SvgjsPath1077" d="M 0 0L 27 0L 27 22L 0 22Z" stroke="none" fill="none"></path><g id="SvgjsG1078"><text id="SvgjsText1079" font-family="微软雅黑" text-anchor="middle" font-size="13px" width="27px" fill="#323232" font-weight="400" align="middle" lineHeight="125%" anchor="middle" family="微软雅黑" size="13px" weight="400" font-style="" opacity="1" y="0.375" transform="rotate(0)"><tspan id="SvgjsTspan1080" dy="16" x="13.5"><tspan id="SvgjsTspan1081" style="text-decoration:;">1</tspan></tspan></text></g></g><g id="SvgjsG1082" transform="translate(25.0089111328125,135.46427536010742)"><path id="SvgjsPath1083" d="M 0 0L 27 0L 27 22L 0 22Z" stroke="none" fill="none"></path><g id="SvgjsG1084"><text id="SvgjsText1085" font-family="微软雅黑" text-anchor="middle" font-size="13px" width="27px" fill="#323232" font-weight="400" align="middle" lineHeight="125%" anchor="middle" family="微软雅黑" size="13px" weight="400" font-style="" opacity="1" y="0.375" transform="rotate(0)"><tspan id="SvgjsTspan1086" dy="16" x="13.5"><tspan id="SvgjsTspan1087" style="text-decoration:;">2</tspan></tspan></text></g></g><g id="SvgjsG1088" transform="translate(25.0089111328125,74.85712432861328)"><path id="SvgjsPath1089" d="M 0 0L 27 0L 27 22L 0 22Z" stroke="none" fill="none"></path><g id="SvgjsG1090"><text id="SvgjsText1091" font-family="微软雅黑" text-anchor="middle" font-size="13px" width="27px" fill="#323232" font-weight="400" align="middle" lineHeight="125%" anchor="middle" family="微软雅黑" size="13px" weight="400" font-style="" opacity="1" y="0.375" transform="rotate(0)"><tspan id="SvgjsTspan1092" dy="16" x="13.5"><tspan id="SvgjsTspan1093" style="text-decoration:;">3</tspan></tspan></text></g></g><g id="SvgjsG1094" transform="translate(25.0089111328125,24.999984741210938)"><path id="SvgjsPath1095" d="M 0 0L 27 0L 27 22L 0 22Z" stroke="none" fill="none"></path><g id="SvgjsG1096"><text id="SvgjsText1097" font-family="微软雅黑" text-anchor="middle" font-size="13px" width="27px" fill="#323232" font-weight="400" align="middle" lineHeight="125%" anchor="middle" family="微软雅黑" size="13px" weight="400" font-style="" opacity="1" y="0.375" transform="rotate(0)"><tspan id="SvgjsTspan1098" dy="16" x="13.5"><tspan id="SvgjsTspan1099" style="text-decoration:;">状态</tspan></tspan></text></g></g><g id="SvgjsG1100"><path id="SvgjsPath1101" d="M128.48149273819394 86.73841124344585L192.53632952743106 206.190139476769" stroke="#323232" stroke-width="2" fill="none"></path></g><g id="SvgjsG1102"><path id="SvgjsPath1103" d="M128.74030035728953 86.53908459308539L192.27752190833547 145.78231509563528" stroke="#323232" stroke-width="2" fill="none"></path></g><g id="SvgjsG1104"><path id="SvgjsPath1105" d="M129.0089111328125 85.85712432861328L192.0089111328125 85.85712432861328" stroke="#323232" stroke-width="2" fill="none"></path></g><g id="SvgjsG1106"><path id="SvgjsPath1107" d="M219.0089111328125 85.85712432861328L282.0089111328125 85.85712432861328" stroke="#323232" stroke-width="2" fill="none"></path></g><g id="SvgjsG1108"><path id="SvgjsPath1109" d="M219.0089111328125 146.46427536010742L282.0089111328125 146.46427536010742" stroke="#323232" stroke-width="2" fill="none"></path></g><g id="SvgjsG1110"><path id="SvgjsPath1111" d="M218.74030035728953 147.14623562457956L282.2775219083355 206.38946612712942" stroke="#323232" stroke-width="2" fill="none"></path></g><g id="SvgjsG1112" transform="translate(96.5089111328125,176.07142639160156)"><path id="SvgjsPath1113" d="M 0 0L 38 0L 38 20L 0 20Z" stroke="none" fill="none"></path><g id="SvgjsG1114"><text id="SvgjsText1115" font-family="微软雅黑" text-anchor="middle" font-size="13px" width="38px" fill="#323232" font-weight="400" align="middle" lineHeight="125%" anchor="middle" family="微软雅黑" size="13px" weight="400" font-style="" opacity="1" y="-0.625" transform="rotate(0)"><tspan id="SvgjsTspan1116" dy="16" x="19"><tspan id="SvgjsTspan1117" style="text-decoration:;">0.1</tspan></tspan></text></g></g><g id="SvgjsG1118" transform="translate(96.5089111328125,115.46427536010742)"><path id="SvgjsPath1119" d="M 0 0L 38 0L 38 20L 0 20Z" stroke="none" fill="none"></path><g id="SvgjsG1120"><text id="SvgjsText1121" font-family="微软雅黑" text-anchor="middle" font-size="13px" width="38px" fill="#323232" font-weight="400" align="middle" lineHeight="125%" anchor="middle" family="微软雅黑" size="13px" weight="400" font-style="" opacity="1" y="-0.625" transform="rotate(0)"><tspan id="SvgjsTspan1122" dy="16" x="19"><tspan id="SvgjsTspan1123" style="text-decoration:;">0.16</tspan></tspan></text></g></g><g id="SvgjsG1124" transform="translate(96.5089111328125,54.85712432861328)"><path id="SvgjsPath1125" d="M 0 0L 38 0L 38 20L 0 20Z" stroke="none" fill="none"></path><g id="SvgjsG1126"><text id="SvgjsText1127" font-family="微软雅黑" text-anchor="middle" font-size="13px" width="38px" fill="#323232" font-weight="400" align="middle" lineHeight="125%" anchor="middle" family="微软雅黑" size="13px" weight="400" font-style="" opacity="1" y="-0.625" transform="rotate(0)"><tspan id="SvgjsTspan1128" dy="16" x="19"><tspan id="SvgjsTspan1129" style="text-decoration:;">0.28</tspan></tspan></text></g></g><g id="SvgjsG1130" transform="translate(186.5089111328125,54.85712432861328)"><path id="SvgjsPath1131" d="M 0 0L 38 0L 38 20L 0 20Z" stroke="none" fill="none"></path><g id="SvgjsG1132"><text id="SvgjsText1133" font-family="微软雅黑" text-anchor="middle" font-size="13px" width="38px" fill="#323232" font-weight="400" align="middle" lineHeight="125%" anchor="middle" family="微软雅黑" size="13px" weight="400" font-style="" opacity="1" y="-0.625" transform="rotate(0)"><tspan id="SvgjsTspan1134" dy="16" x="19"><tspan id="SvgjsTspan1135" style="text-decoration:;">0.042</tspan></tspan></text></g></g><g id="SvgjsG1136" transform="translate(186.5089111328125,115.46427536010742)"><path id="SvgjsPath1137" d="M 0 0L 38 0L 38 20L 0 20Z" stroke="none" fill="none"></path><g id="SvgjsG1138"><text id="SvgjsText1139" font-family="微软雅黑" text-anchor="middle" font-size="13px" width="38px" fill="#323232" font-weight="400" align="middle" lineHeight="125%" anchor="middle" family="微软雅黑" size="13px" weight="400" font-style="" opacity="1" y="-0.625" transform="rotate(0)"><tspan id="SvgjsTspan1140" dy="16" x="19"><tspan id="SvgjsTspan1141" style="text-decoration:;">0.0504</tspan></tspan></text></g></g><g id="SvgjsG1142" transform="translate(186.5089111328125,176.07142639160156)"><path id="SvgjsPath1143" d="M 0 0L 38 0L 38 20L 0 20Z" stroke="none" fill="none"></path><g id="SvgjsG1144"><text id="SvgjsText1145" font-family="微软雅黑" text-anchor="middle" font-size="13px" width="38px" fill="#323232" font-weight="400" align="middle" lineHeight="125%" anchor="middle" family="微软雅黑" size="13px" weight="400" font-style="" opacity="1" y="-0.625" transform="rotate(0)"><tspan id="SvgjsTspan1146" dy="16" x="19"><tspan id="SvgjsTspan1147" style="text-decoration:;">0.028</tspan></tspan></text></g></g><g id="SvgjsG1148" transform="translate(276.5089111328125,54.85712432861328)"><path id="SvgjsPath1149" d="M 0 0L 38 0L 38 20L 0 20Z" stroke="none" fill="none"></path><g id="SvgjsG1150"><text id="SvgjsText1151" font-family="微软雅黑" text-anchor="middle" font-size="13px" width="38px" fill="#323232" font-weight="400" align="middle" lineHeight="125%" anchor="middle" family="微软雅黑" size="13px" weight="400" font-style="" opacity="1" y="-0.625" transform="rotate(0)"><tspan id="SvgjsTspan1152" dy="16" x="19"><tspan id="SvgjsTspan1153" style="text-decoration:;">0.0147</tspan></tspan></text></g></g><g id="SvgjsG1154" transform="translate(271.7589111328125,115.46427536010742)"><path id="SvgjsPath1155" d="M 0 0L 47.5 0L 47.5 20L 0 20Z" stroke="none" fill="none"></path><g id="SvgjsG1156"><text id="SvgjsText1157" font-family="微软雅黑" text-anchor="middle" font-size="13px" width="48px" fill="#323232" font-weight="400" align="middle" lineHeight="125%" anchor="middle" family="微软雅黑" size="13px" weight="400" font-style="" opacity="1" y="-0.625" transform="rotate(0)"><tspan id="SvgjsTspan1158" dy="16" x="24"><tspan id="SvgjsTspan1159" style="text-decoration:;">0.01008</tspan></tspan></text></g></g><g id="SvgjsG1160" transform="translate(271.7589111328125,176.07142639160156)"><path id="SvgjsPath1161" d="M 0 0L 47.5 0L 47.5 20L 0 20Z" stroke="none" fill="none"></path><g id="SvgjsG1162"><text id="SvgjsText1163" font-family="微软雅黑" text-anchor="middle" font-size="13px" width="48px" fill="#323232" font-weight="400" align="middle" lineHeight="125%" anchor="middle" family="微软雅黑" size="13px" weight="400" font-style="" opacity="1" y="-0.625" transform="rotate(0)"><tspan id="SvgjsTspan1164" dy="16" x="24"><tspan id="SvgjsTspan1165" style="text-decoration:;">0.00756</tspan></tspan></text></g></g></svg>