<svg id="SvgjsSvg1006" width="333" height="212.00001525878906" xmlns="http://www.w3.org/2000/svg" version="1.1" xmlns:xlink="http://www.w3.org/1999/xlink" xmlns:svgjs="http://svgjs.com/svgjs"><defs id="SvgjsDefs1007"><marker id="SvgjsMarker1046" markerWidth="14" markerHeight="10" refX="10" refY="5" viewBox="0 0 14 10" orient="auto" markerUnits="userSpaceOnUse" stroke-dasharray="0,0"><path id="SvgjsPath1047" d="M0,0 L14,5 L0,10 L0,0" fill="#323232" stroke="#323232" stroke-width="1"></path></marker><marker id="SvgjsMarker1050" markerWidth="14" markerHeight="10" refX="10" refY="5" viewBox="0 0 14 10" orient="auto" markerUnits="userSpaceOnUse" stroke-dasharray="0,0"><path id="SvgjsPath1051" d="M0,0 L14,5 L0,10 L0,0" fill="#323232" stroke="#323232" stroke-width="1"></path></marker><marker id="SvgjsMarker1054" markerWidth="14" markerHeight="10" refX="10" refY="5" viewBox="0 0 14 10" orient="auto" markerUnits="userSpaceOnUse" stroke-dasharray="0,0"><path id="SvgjsPath1055" d="M0,0 L14,5 L0,10 L0,0" fill="#323232" stroke="#323232" stroke-width="1"></path></marker><marker id="SvgjsMarker1058" markerWidth="14" markerHeight="10" refX="10" refY="5" viewBox="0 0 14 10" orient="auto" markerUnits="userSpaceOnUse" stroke-dasharray="0,0"><path id="SvgjsPath1059" d="M0,0 L14,5 L0,10 L0,0" fill="#323232" stroke="#323232" stroke-width="1"></path></marker><marker id="SvgjsMarker1062" markerWidth="14" markerHeight="10" refX="10" refY="5" viewBox="0 0 14 10" orient="auto" markerUnits="userSpaceOnUse" stroke-dasharray="0,0"><path id="SvgjsPath1063" d="M0,0 L14,5 L0,10 L0,0" fill="#323232" stroke="#323232" stroke-width="1"></path></marker></defs><g id="SvgjsG1008" transform="translate(24.999908447265625,24.99999237060547)"><path id="SvgjsPath1009" d="M 0 18.5C 0 -6.166666666666667 37 -6.166666666666667 37 18.5C 37 43.166666666666664 0 43.166666666666664 0 18.5Z" stroke="rgba(50,50,50,1)" stroke-width="2" fill-opacity="1" fill="#ffffff"></path><g id="SvgjsG1010"><text id="SvgjsText1011" font-family="微软雅黑" text-anchor="middle" font-size="13px" width="17px" fill="#323232" font-weight="400" align="middle" lineHeight="125%" anchor="middle" family="微软雅黑" size="13px" weight="400" font-style="" opacity="1" y="7.875" transform="rotate(0)"><tspan id="SvgjsTspan1012" dy="16" x="18.5"><tspan id="SvgjsTspan1013" style="text-decoration:;">y1</tspan></tspan></text></g></g><g id="SvgjsG1014" transform="translate(147.99990844726562,24.99999237060547)"><path id="SvgjsPath1015" d="M 0 18.5C 0 -6.166666666666667 37 -6.166666666666667 37 18.5C 37 43.166666666666664 0 43.166666666666664 0 18.5Z" stroke="rgba(50,50,50,1)" stroke-width="2" fill-opacity="1" fill="#ffffff"></path><g id="SvgjsG1016"><text id="SvgjsText1017" font-family="微软雅黑" text-anchor="middle" font-size="13px" width="17px" fill="#323232" font-weight="400" align="middle" lineHeight="125%" anchor="middle" family="微软雅黑" size="13px" weight="400" font-style="" opacity="1" y="7.875" transform="rotate(0)"><tspan id="SvgjsTspan1018" dy="16" x="18.5"><tspan id="SvgjsTspan1019" style="text-decoration:;">y2</tspan></tspan></text></g></g><g id="SvgjsG1020" transform="translate(270.9999084472656,24.99999237060547)"><path id="SvgjsPath1021" d="M 0 18.5C 0 -6.166666666666667 37 -6.166666666666667 37 18.5C 37 43.166666666666664 0 43.166666666666664 0 18.5Z" stroke="rgba(50,50,50,1)" stroke-width="2" fill-opacity="1" fill="#ffffff"></path><g id="SvgjsG1022"><text id="SvgjsText1023" font-family="微软雅黑" text-anchor="middle" font-size="13px" width="17px" fill="#323232" font-weight="400" align="middle" lineHeight="125%" anchor="middle" family="微软雅黑" size="13px" weight="400" font-style="" opacity="1" y="7.875" transform="rotate(0)"><tspan id="SvgjsTspan1024" dy="16" x="18.5"><tspan id="SvgjsTspan1025" style="text-decoration:;">y3</tspan></tspan></text></g></g><g id="SvgjsG1026" transform="translate(24.999908447265625,149.99999237060547)"><path id="SvgjsPath1027" d="M 0 18.5C 0 -6.166666666666667 37 -6.166666666666667 37 18.5C 37 43.166666666666664 0 43.166666666666664 0 18.5Z" stroke="rgba(50,50,50,1)" stroke-width="2" fill-opacity="1" fill="#ffffff"></path><g id="SvgjsG1028"><text id="SvgjsText1029" font-family="微软雅黑" text-anchor="middle" font-size="13px" width="17px" fill="#323232" font-weight="400" align="middle" lineHeight="125%" anchor="middle" family="微软雅黑" size="13px" weight="400" font-style="" opacity="1" y="7.875" transform="rotate(0)"><tspan id="SvgjsTspan1030" dy="16" x="18.5"><tspan id="SvgjsTspan1031" style="text-decoration:;">x1</tspan></tspan></text></g></g><g id="SvgjsG1032" transform="translate(147.99990844726562,149.99999237060547)"><path id="SvgjsPath1033" d="M 0 18.5C 0 -6.166666666666667 37 -6.166666666666667 37 18.5C 37 43.166666666666664 0 43.166666666666664 0 18.5Z" stroke="rgba(50,50,50,1)" stroke-width="2" fill-opacity="1" fill="#ffffff"></path><g id="SvgjsG1034"><text id="SvgjsText1035" font-family="微软雅黑" text-anchor="middle" font-size="13px" width="17px" fill="#323232" font-weight="400" align="middle" lineHeight="125%" anchor="middle" family="微软雅黑" size="13px" weight="400" font-style="" opacity="1" y="7.875" transform="rotate(0)"><tspan id="SvgjsTspan1036" dy="16" x="18.5"><tspan id="SvgjsTspan1037" style="text-decoration:;">x2</tspan></tspan></text></g></g><g id="SvgjsG1038" transform="translate(270.9999084472656,149.99999237060547)"><path id="SvgjsPath1039" d="M 0 18.5C 0 -6.166666666666667 37 -6.166666666666667 37 18.5C 37 43.166666666666664 0 43.166666666666664 0 18.5Z" stroke="rgba(50,50,50,1)" stroke-width="2" fill-opacity="1" fill="#ffffff"></path><g id="SvgjsG1040"><text id="SvgjsText1041" font-family="微软雅黑" text-anchor="middle" font-size="13px" width="17px" fill="#323232" font-weight="400" align="middle" lineHeight="125%" anchor="middle" family="微软雅黑" size="13px" weight="400" font-style="" opacity="1" y="7.875" transform="rotate(0)"><tspan id="SvgjsTspan1042" dy="16" x="18.5"><tspan id="SvgjsTspan1043" style="text-decoration:;">x3</tspan></tspan></text></g></g><g id="SvgjsG1044"><path id="SvgjsPath1045" d="M62.999908447265625 43.49999237060547L104.99990844726562 43.49999237060547L104.99990844726562 43.49999237060547L144.39990844726572 43.49999237060547" stroke="#323232" stroke-width="2" fill="none" marker-end="url(#SvgjsMarker1046)"></path></g><g id="SvgjsG1048"><path id="SvgjsPath1049" d="M185.99990844726562 43.49999237060547L227.99990844726562 43.49999237060547L227.99990844726562 43.49999237060547L267.3999084472657 43.49999237060547" stroke="#323232" stroke-width="2" fill="none" marker-end="url(#SvgjsMarker1050)"></path></g><g id="SvgjsG1052"><path id="SvgjsPath1053" d="M43.499908447265625 62.99999237060547L43.499908447265625 105.99999237060547L43.499908447265625 105.99999237060547L43.499908447265625 146.39999237060545" stroke="#323232" stroke-width="2" fill="none" marker-end="url(#SvgjsMarker1054)"></path></g><g id="SvgjsG1056"><path id="SvgjsPath1057" d="M166.49990844726562 62.99999237060547L166.49990844726562 105.99999237060547L166.49990844726562 105.99999237060547L166.49990844726562 146.39999237060545" stroke="#323232" stroke-width="2" fill="none" marker-end="url(#SvgjsMarker1058)"></path></g><g id="SvgjsG1060"><path id="SvgjsPath1061" d="M289.4999084472656 62.99999237060547L289.4999084472656 105.99999237060547L289.4999084472656 105.99999237060547L289.4999084472656 146.39999237060545" stroke="#323232" stroke-width="2" fill="none" marker-end="url(#SvgjsMarker1062)"></path></g></svg>